<?xml version="1.0" encoding="UTF-8" standalone="no"?>
<!-- Created with Inkscape (http://www.inkscape.org/) -->

<svg
   width="63.999996"
   height="63.999996"
   viewBox="0 0 16.933332 16.933332"
   version="1.1"
   id="svg1236"
   xmlns="http://www.w3.org/2000/svg"
   xmlns:svg="http://www.w3.org/2000/svg">
   <defs
      id="defs1233" />
   <path
      id="rect605"
      style="display:inline;fill:#000000;fill-rule:evenodd;stroke-width:0;paint-order:stroke fill markers;stop-color:#000000"
      d="M 1.0583331,1.0583333 V 15.875 H 15.875 V 1.0583333 Z M 2.1166664,2.1166666 H 14.816666 V 14.816666 H 2.1166664 Z M 2.6458332,2.6458333 V 14.2875 H 14.2875 V 2.6458333 Z M 8.4666664,4.2333332 A 4.2333331,4.2333331 0 0 1 12.7,8.4666665 4.2333331,4.2333331 0 0 1 8.4666664,12.7 4.2333331,4.2333331 0 0 1 4.233333,8.4666665 4.2333331,4.2333331 0 0 1 8.4666664,4.2333332 Z m 0,2.1166667 A 2.1166666,2.1166666 0 0 0 6.3499997,8.4666665 2.1166666,2.1166666 0 0 0 8.4666664,10.583333 2.1166666,2.1166666 0 0 0 10.583333,8.4666665 2.1166666,2.1166666 0 0 0 8.4666664,6.3499999 Z" />
</svg>