<?xml version="1.0" encoding="UTF-8" standalone="no"?>
<!-- Created with Inkscape (http://www.inkscape.org/) -->

<svg
   width="64"
   height="64"
   viewBox="0 0 16.933333 16.933333"
   version="1.1"
   id="svg5"
   inkscape:export-filename="arrow.svg"
   inkscape:export-xdpi="96"
   inkscape:export-ydpi="96"
   inkscape:version="1.2 (dc2aedaf03, 2022-05-15)"
   sodipodi:docname="materials.svg"
   xmlns:inkscape="http://www.inkscape.org/namespaces/inkscape"
   xmlns:sodipodi="http://sodipodi.sourceforge.net/DTD/sodipodi-0.dtd"
   xmlns="http://www.w3.org/2000/svg"
   xmlns:svg="http://www.w3.org/2000/svg">
  <sodipodi:namedview
     id="namedview7"
     pagecolor="#ffffff"
     bordercolor="#000000"
     borderopacity="0.25"
     inkscape:showpageshadow="2"
     inkscape:pageopacity="0.0"
     inkscape:pagecheckerboard="0"
     inkscape:deskcolor="#d1d1d1"
     inkscape:document-units="px"
     showgrid="false"
     inkscape:zoom="29.875"
     inkscape:cx="32"
     inkscape:cy="32"
     inkscape:window-width="3840"
     inkscape:window-height="2089"
     inkscape:window-x="-8"
     inkscape:window-y="-8"
     inkscape:window-maximized="1"
     inkscape:current-layer="layer1" />
  <defs
     id="defs2" />
  <g
     inkscape:label="Layer 1"
     inkscape:groupmode="layer"
     id="layer1"
     style="display:inline">
    <path
       id="rect1436"
       style="display:none;fill:#000000;fill-opacity:1;fill-rule:evenodd;stroke-width:0;paint-order:stroke fill markers;stop-color:#000000"
       d="M 2.1166666,2.1166666 V 7.4083332 H 3.1749999 V 3.1749999 H 7.4083332 V 2.1166666 Z m 7.4083332,0 v 1.0583333 h 4.2333332 v 4.2333333 h 1.058333 V 2.1166666 Z M 2.1166666,9.5249998 V 14.816666 H 7.4083332 V 13.758333 H 3.1749999 V 9.5249998 Z m 11.6416664,0 V 13.758333 H 9.5249998 v 1.058333 H 14.816666 V 9.5249998 Z" />
    <path
       id="path1455"
       style="display:inline;fill:#000000;fill-opacity:1;fill-rule:evenodd;stroke-width:0;paint-order:stroke fill markers;stop-color:#000000"
       d="M 6.3499999,2.1166666 V 6.3499999 H 2.1166666 V 7.4083332 H 7.4083332 V 2.1166666 Z m 3.1749999,0 V 7.4083332 H 14.816666 V 6.3499999 H 10.583333 V 2.1166666 Z M 2.1166666,9.5249998 v 1.0583332 h 4.2333333 v 4.233333 H 7.4083332 V 9.5249998 Z m 7.4083332,0 v 5.2916662 h 1.0583332 v -4.233333 h 4.233333 V 9.5249998 Z" />
  </g>
  <g
     inkscape:groupmode="layer"
     id="layer2"
     inkscape:label="Layer 2"
     style="display:none">
    <path
       id="rect605"
       style="display:inline;fill:#000000;fill-rule:evenodd;stroke-width:0;paint-order:stroke fill markers;stop-color:#000000"
       d="M 1.0583333,1.0583333 V 15.875 H 15.875 V 1.0583333 Z M 2.1166666,2.1166666 H 14.816666 V 14.816666 H 2.1166666 Z M 2.6458333,2.6458333 V 14.2875 H 14.2875 V 2.6458333 Z M 8.4666665,4.2333332 A 4.2333331,4.2333331 0 0 1 12.7,8.4666665 4.2333331,4.2333331 0 0 1 8.4666665,12.7 4.2333331,4.2333331 0 0 1 4.2333332,8.4666665 4.2333331,4.2333331 0 0 1 8.4666665,4.2333332 Z m 0,2.1166667 A 2.1166666,2.1166666 0 0 0 6.3499999,8.4666665 2.1166666,2.1166666 0 0 0 8.4666665,10.583333 2.1166666,2.1166666 0 0 0 10.583333,8.4666665 2.1166666,2.1166666 0 0 0 8.4666665,6.3499999 Z" />
  </g>
  <g
     inkscape:groupmode="layer"
     id="layer3"
     inkscape:label="Layer 3"
     style="display:none">
    <path
       id="rect345"
       style="fill:#000000;fill-rule:evenodd;stroke-width:0;paint-order:stroke fill markers;stop-color:#000000"
       d="M 12.015804,2.8649412 11.26753,2.1166673 4.9175285,8.4666665 11.26753,14.816666 12.015803,14.068392 6.4140775,8.4666666 Z" />
  </g>
</svg>
